<!-- This Source Code Form is subject to the terms of the Mozilla Public
   - License, v. 2.0. If a copy of the MPL was not distributed with this
   - file, You can obtain one at http://mozilla.org/MPL/2.0/. -->
<svg xmlns="http://www.w3.org/2000/svg" width="16" height="16">
  <path fill="#ededf0" d="M3.073 8.015H2.76q-.826 0-1.247.286-.416.28-.416.842 0 .506.313.786t.867.28q.78 0 1.227-.525.447-.531.452-1.464v-.205Zm1.833-.38v3.201h-.95v-.832q-.303.502-.765.742-.457.236-1.114.236-.877 0-1.401-.481-.524-.487-.524-1.298 0-.937.642-1.424.647-.486 1.894-.486h1.268v-.145q-.005-.671-.349-.972-.344-.306-1.099-.306-.482 0-.975.135-.493.136-.96.396V5.48q.524-.195 1.001-.29.483-.1.934-.1.714 0 1.217.205.508.205.821.616.195.25.278.622.082.365.082 1.102z"/>
  <path fill="#ededf0" d="M9.77 5.346v.91q-.392-.233-.79-.349-.397-.116-.81-.116-.622 0-.93.207-.303.202-.303.622 0 .38.229.567.228.187 1.138.364l.368.07q.681.132 1.03.527.352.394.352 1.027 0 .84-.586 1.315-.587.47-1.631.47-.413 0-.865-.09-.453-.087-.98-.264v-.96q.512.267.98.404.467.131.885.131.606 0 .94-.248.333-.252.333-.703 0-.647-1.219-.895l-.04-.01-.343-.07q-.79-.158-1.153-.527-.363-.374-.363-1.017 0-.814.542-1.254.542-.445 1.546-.445.448 0 .86.086.413.08.81.248z"/>
  <path fill="#ededf0" d="M13.732 5.754q.162-.366.41-.539.252-.178.605-.178.643 0 .905.534.267.528.267 1.996v3.298h-.8V7.608q0-1.204-.13-1.494-.123-.294-.457-.294-.38 0-.524.315-.138.31-.138 1.473v3.257h-.8V7.608q0-1.22-.139-1.504-.133-.284-.486-.284-.348 0-.486.315-.133.31-.133 1.473v3.257h-.796v-5.69h.796v.487q.157-.305.39-.462.239-.163.539-.163.362 0 .6.178.243.178.377.539z"/>
</svg>
