<?xml version="1.0" encoding="UTF-8"?>
<!-- This Source Code Form is subject to the terms of the Mozilla Public
   - License, v. 2.0. If a copy of the MPL was not distributed with this
   - file, You can obtain one at http://mozilla.org/MPL/2.0/. -->
<svg width="12px" height="12px" viewBox="0 0 12 12" version="1.1" xmlns="http://www.w3.org/2000/svg" xmlns:xlink="http://www.w3.org/1999/xlink">
  <path
    d="M9.29289322,10 L4.5,10 L3,10 C1.34314575,10 0,8.65685425 0,7 C0,5.65937303 0.879367546,4.52413336 2.09275829,4.13962533 C2.16876029,3.79289523 2.28973991,3.4630048 2.44927221,3.15637899 L1.14644661,1.85355339 C0.951184464,1.65829124 0.951184464,1.34170876 1.14644661,1.14644661 C1.34170876,0.951184464 1.65829124,0.951184464 1.85355339,1.14644661 L10.8535534,10.1464466 C11.0488155,10.3417088 11.0488155,10.6582912 10.8535534,10.8535534 C10.6582912,11.0488155 10.3417088,11.0488155 10.1464466,10.8535534 L9.29289322,10 Z M3.59753272,4.3046395 C3.58273895,4.35598614 3.56953201,4.40805505 3.55797163,4.46079487 L3.37234335,5.30765297 L2.54588248,5.56954787 C1.92862059,5.76515028 1.5,6.3413717 1.5,7 C1.5,7.82842712 2.17157288,8.5 3,8.5 L7.79289322,8.5 L3.5975305,4.30463728 Z M11.3143274,9.21995455 C11.2967685,9.1940378 11.2765105,9.16940371 11.2535534,9.14644661 L10.2586418,8.15153498 C10.4090797,7.97652738 10.5,7.74888148 10.5,7.5 C10.5,7.0224469 10.1618645,6.61339729 9.70148052,6.52000435 L8.48461437,6.27315236 L8.49980685,5.03159353 L8.5,5 C8.5,3.61928813 7.38071187,2.5 6,2.5 C5.59753465,2.5 5.21449412,2.59594416 4.87456675,2.76745997 L3.77951915,1.67241237 C4.41477275,1.24766784 5.17846341,1 6,1 C8.209139,1 10,2.790861 10,5 C10,5.01667305 9.99989799,5.03332227 9.99969456,5.04994708 C11.1409669,5.2814642 12,6.29041313 12,7.5 C12,8.16635228 11.7392985,8.77181446 11.3143274,9.21995455 Z"
    fill="rgba(12, 12, 13, .8)"
    fill-rule="nonzero"
  ></path>
</svg>
