<!-- This Source Code Form is subject to the terms of the Mozilla Public
   - License, v. 2.0. If a copy of the MPL was not distributed with this
   - file, You can obtain one at http://mozilla.org/MPL/2.0/. -->
<svg width="16px" height="16px" version="1.1" viewBox="0 0 16 16" xmlns="http://www.w3.org/2000/svg">
 <g transform="matrix(.96081 0 0 1.063 -.19979 -.084155)" fill="#0c0c0d" aria-label="{}">
  <path d="m6.4527 13.984v1.1468h-0.49374q-1.9829 0-2.6598-0.5893-0.66894-0.5893-0.66894-2.3492v-1.9033q0-1.2025-0.43003-1.6644-0.43003-0.46189-1.5609-0.46189h-0.48578v-1.1388h0.48578q1.1388 0 1.5609-0.45392 0.43003-0.46189 0.43003-1.6485v-1.9113q0-1.7599 0.66894-2.3413 0.6769-0.5893 2.6598-0.5893h0.49374v1.1388h-0.54152q-1.1229 0-1.4653 0.3504-0.34243 0.3504-0.34243 1.4733v1.975q0 1.2503-0.36632 1.8157-0.35836 0.56541-1.2343 0.7645 0.88395 0.21502 1.2423 0.78043 0.35836 0.56541 0.35836 1.8077v1.975q0 1.1229 0.34243 1.4733 0.34243 0.3504 1.4653 0.3504z"/>
  <path d="m10.538 13.984h0.55745q1.1149 0 1.4494-0.34243 0.34243-0.34243 0.34243-1.4812v-1.975q0-1.2423 0.35836-1.8077 0.35836-0.56541 1.2423-0.78043-0.88395-0.19909-1.2423-0.7645-0.35836-0.56541-0.35836-1.8157v-1.975q0-1.1308-0.34243-1.4733-0.33447-0.3504-1.4494-0.3504h-0.55745v-1.1388h0.5017q1.9829 0 2.6439 0.5893 0.66894 0.58134 0.66894 2.3413v1.9113q0 1.1866 0.43003 1.6485 0.43003 0.45392 1.5609 0.45392h0.49374v1.1388h-0.49374q-1.1308 0-1.5609 0.46189-0.43003 0.46189-0.43003 1.6644v1.9033q0 1.7599-0.66894 2.3492-0.66097 0.5893-2.6439 0.5893h-0.5017z"/>
 </g>
</svg>
