<!-- This Source Code Form is subject to the terms of the Mozilla Public
   - License, v. 2.0. If a copy of the MPL was not distributed with this
   - file, You can obtain one at http://mozilla.org/MPL/2.0/. -->
<svg width="16" height="16" version="1.1" viewBox="0 0 16 16" xmlns="http://www.w3.org/2000/svg">
 <path d="m14 1a1 1 0 1 0 1 1 1 1 0 0 0-1-1z" fill="#0c0c0d" fill-opacity=".53333"/>
 <path d="m11 1h-9a1 1 0 0 0 0 2h9a1 1 0 0 0 0-2z" fill="#0c0c0d" fill-opacity=".8"/>
 <path d="m11 9a1 1 0 1 0 1 1 1 1 0 0 0-1-1z" fill="#0c0c0d" fill-opacity=".53333"/>
 <path d="m8 9h-6a1 1 0 0 0 0 2h6a1 1 0 0 0 0-2z" fill="#0c0c0d" fill-opacity=".8"/>
 <path d="m8 5a1 1 0 1 0 1 1 1 1 0 0 0-1-1z" fill="#0c0c0d" fill-opacity=".53333"/>
 <path d="m5 5h-3a1 1 0 0 0 0 2h3a1 1 0 0 0 0-2z" fill="#0c0c0d" fill-opacity=".8"/>
 <path d="m14 13a1 1 0 1 0 1 1 1 1 0 0 0-1-1z" fill="#0c0c0d" fill-opacity=".53333"/>
 <path d="m11 13h-9a1 1 0 0 0 0 2h9a1 1 0 0 0 0-2z" fill="#0c0c0d" fill-opacity=".8"/>
</svg>
