<!-- This Source Code Form is subject to the terms of the Mozilla Public
   - License, v. 2.0. If a copy of the MPL was not distributed with this
   - file, You can obtain one at http://mozilla.org/MPL/2.0/. -->
<svg width="16" height="16" viewBox="0 0 16 16" fill="none" xmlns="http://www.w3.org/2000/svg">
<path fill="rgba(12, 12, 13, .8)" fill-rule="evenodd" clip-rule="evenodd" d="M15.3743 0C15.5402 0 15.6994 0.0658946 15.8168 0.183199C15.9339 0.30041 15.9998 0.459281 16 0.624986C16.0002 0.790692 15.9346 0.949711 15.8178 1.06719L12.1928 4.69213L13.6468 6.14611C13.7169 6.21604 13.7647 6.30521 13.784 6.40231C13.8034 6.49942 13.7935 6.60009 13.7556 6.69156C13.7177 6.78304 13.6534 6.86119 13.5711 6.91612C13.4887 6.97104 13.3918 7.00027 13.2928 7.0001H9.29987L8.99987 6.7001V2.70716C9.00009 2.60843 9.02953 2.51198 9.08449 2.42996C9.13944 2.34794 9.21745 2.28402 9.30868 2.24627C9.3999 2.20852 9.50026 2.19862 9.59711 2.21782C9.69395 2.23702 9.78294 2.28446 9.85286 2.35417L11.0258 3.52715L11.3068 3.80814L14.9318 0.183199C15.0492 0.0658946 15.2083 0 15.3743 0ZM3.42871 8.08406C3.5111 8.02914 3.60794 7.99991 3.70696 8.00008H7.6999L7.99989 8.30008V12.293C7.99987 12.392 7.9705 12.4887 7.9155 12.5709C7.86049 12.6531 7.78233 12.7172 7.6909 12.755C7.59947 12.7928 7.49888 12.8026 7.40186 12.7832C7.30485 12.7638 7.21577 12.7161 7.1459 12.646L5.97292 11.473L5.69193 11.192L2.06698 14.817C1.94922 14.9334 1.79032 14.9989 1.62469 14.999C1.45906 14.9992 1.30002 14.9342 1.182 14.818C1.06518 14.7003 0.999619 14.5413 0.999619 14.3755C0.999619 14.2097 1.06518 14.0506 1.182 13.933L4.80694 10.308L3.35296 8.85407C3.28286 8.78414 3.23509 8.69497 3.21573 8.59787C3.19636 8.50076 3.20626 8.40009 3.24418 8.30862C3.2821 8.21714 3.34632 8.13899 3.42871 8.08406Z"/>
</svg>
