<?xml version="1.0" encoding="UTF-8" standalone="no"?>
<svg
   xmlns:dc="http://purl.org/dc/elements/1.1/"
   xmlns:cc="http://creativecommons.org/ns#"
   xmlns:rdf="http://www.w3.org/1999/02/22-rdf-syntax-ns#"
   xmlns:svg="http://www.w3.org/2000/svg"
   xmlns="http://www.w3.org/2000/svg"
   xmlns:sodipodi="http://sodipodi.sourceforge.net/DTD/sodipodi-0.dtd"
   xmlns:inkscape="http://www.inkscape.org/namespaces/inkscape"
   inkscape:version="1.0 (4035a4f, 2020-05-01)"
   sodipodi:docname="inlined-icon.svg"
   id="svg1136"
   version="1.1"
   viewBox="0 0 12 12"
   height="12"
   width="12">
  <metadata
     id="metadata1142">
    <rdf:RDF>
      <cc:Work
         rdf:about="">
        <dc:format>image/svg+xml</dc:format>
        <dc:type
           rdf:resource="http://purl.org/dc/dcmitype/StillImage" />
      </cc:Work>
    </rdf:RDF>
  </metadata>
  <defs
     id="defs1140" />
  <sodipodi:namedview
     inkscape:current-layer="svg1136"
     inkscape:window-maximized="0"
     inkscape:window-y="351"
     inkscape:window-x="-410"
     inkscape:cy="7.404878"
     inkscape:cx="5.2780488"
     inkscape:zoom="51.25"
     showgrid="false"
     id="namedview1138"
     inkscape:window-height="480"
     inkscape:window-width="1080"
     inkscape:pageshadow="2"
     inkscape:pageopacity="0"
     guidetolerance="10"
     gridtolerance="10"
     objecttolerance="10"
     borderopacity="1"
     bordercolor="#666666"
     pagecolor="#ffffff" />
  <rect
     id="rect1126"
     ry="1.7"
     rx="1.7"
     y="1"
     x="0"
     height="11"
     width="12"
     fill="#bbb" />
  <rect
     id="rect1128"
     ry="1.7"
     rx="1.7"
     y="0"
     x="0"
     height="11"
     width="12"
     fill="#e7e7e7" />
  <path
     style="stroke-width:0.960929"
     id="path1130"
     fill="#999999"
     d="M 3.100002,3.961457 V 2.974 h -1.135 v 0.987457 z m -1.135,0.6751869 V 9 h 1.135 V 4.6366439 Z" />
  <path
     style="stroke-width:0.971643"
     id="path1132"
     fill="#999999"
     d="M 3.973,4.5388053 V 9 H 5.178976 V 6.6615406 q 0,-0.6816882 0.220812,-0.9750826 0.220812,-0.302014 0.7133929,-0.302014 0.433133,0 0.6029881,0.2761273 0.1698549,0.2674975 0.1698549,0.8197612 V 9 h 1.205976 V 6.2559792 q 0,-0.4141998 -0.07643,-0.7507296 Q 7.9476299,5.1600912 7.7692799,4.9271088 7.5909309,4.685498 7.2766979,4.5560633 6.9709579,4.418 6.4868689,4.418 6.1046929,4.418 5.739503,4.599208 5.3743139,4.7717874 5.145009,5.1600912 H 5.119539 V 4.5388053 Z" />
  <path
     style="stroke-width:0.960929"
     id="path1134"
     fill="#999999"
     d="M 8.9719997,2.974 V 9 H 10.007 V 2.974 Z" />
</svg>
