<?xml version="1.0" encoding="UTF-8"?>
<!-- This Source Code Form is subject to the terms of the Mozilla Public
   - License, v. 2.0. If a copy of the MPL was not distributed with this
   - file, You can obtain one at http://mozilla.org/MPL/2.0/. -->
<svg width="12px" height="12px" viewBox="0 0 12 12" version="1.1" xmlns="http://www.w3.org/2000/svg" xmlns:xlink="http://www.w3.org/1999/xlink">
  <g fill="rgba(237, 237, 240, .8)" fill-rule="nonzero">
    <path d="M6.00026517,2.46439017 C6.41447873,2.46439017 6.75026517,2.8001766 6.75026517,3.21439017 L6.75026517,8.78614017 C6.75026517,9.20035373 6.41447873,9.53614017 6.00026517,9.53614017 C5.5860516,9.53614017 5.25026517,9.20035373 5.25026517,8.78614017 L5.25026517,3.21439017 C5.25026517,2.8001766 5.5860516,2.46439017 6.00026517,2.46439017 Z" id="Rectangle" transform="translate(6.000265, 6.000265) rotate(-45.000000) translate(-6.000265, -6.000265) "></path>
    <path d="M1.7655,3.3915 L3.36375,1.7925 C3.43419143,1.72127641 3.53020117,1.681197 3.630375,1.681197 C3.73054883,1.681197 3.82655857,1.72127641 3.897,1.7925 L6.2895,4.185 L6.3,4.17375 C6.8820826,3.5886064 6.8820826,2.6431436 6.3,2.058 L4.704,0.462 C4.1188564,-0.120082601 3.1733936,-0.120082601 2.58825,0.462 L0.462,2.58825 C-0.120082601,3.1733936 -0.120082601,4.1188564 0.462,4.704 L2.058,6.3 C2.63599902,6.87871134 3.57179308,6.88539558 4.158,6.315 L1.7655,3.9255 C1.69404449,3.85503006 1.6538173,3.75885887 1.6538173,3.6585 C1.6538173,3.55814113 1.69404449,3.46196994 1.7655,3.3915 Z M11.562,7.31925 L9.96525,5.7225 C9.3801064,5.1404174 8.4346436,5.1404174 7.8495,5.7225 L7.83825,5.73375 L10.23,8.1255 C10.3012236,8.19594143 10.341303,8.29195117 10.341303,8.392125 C10.341303,8.49229883 10.3012236,8.58830857 10.23,8.65875 L8.631,10.25775 C8.56055857,10.3289736 8.46454883,10.369053 8.364375,10.369053 C8.26420117,10.369053 8.16819143,10.3289736 8.09775,10.25775 L5.7075,7.8675 C5.13710442,8.45370692 5.14378866,9.38950098 5.7225,9.9675 L7.3185,11.5635 C7.9036436,12.1455826 8.8491064,12.1455826 9.43425,11.5635 L11.5605,9.43725 C12.1444911,8.85225876 12.1451619,7.90506784 11.562,7.31925 L11.562,7.31925 Z"></path>
  </g>
</svg>
