<?xml version="1.0" encoding="UTF-8"?>
<!-- This Source Code Form is subject to the terms of the Mozilla Public
   - License, v. 2.0. If a copy of the MPL was not distributed with this
   - file, You can obtain one at http://mozilla.org/MPL/2.0/. -->
<svg width="12px" height="12px" viewBox="0 0 12 12" fill="none" xmlns="http://www.w3.org/2000/svg" xmlns:xlink="http://www.w3.org/1999/xlink">
<path d="M10.2857 1H1.71429C1.52485 1 1.34316 1.07525 1.20921 1.20921C1.07525 1.34316 1 1.52485 1 1.71429V10.2857C1 10.4752 1.07525 10.6568 1.20921 10.7908C1.34316 10.9247 1.52485 11 1.71429 11H10.2857C10.4752 11 10.6568 10.9247 10.7908 10.7908C10.9247 10.6568 11 10.4752 11 10.2857V1.71429C11 1.52485 10.9247 1.34316 10.7908 1.20921C10.6568 1.07525 10.4752 1 10.2857 1ZM9.57143 9.57143H2.42857V2.42857H9.57143V9.57143Z" fill="#0C0C0D" fill-opacity="0.8"/>
<path d="M3.75 6.75H5.25V8.25C5.25 8.44891 5.32902 8.63968 5.46967 8.78033C5.61032 8.92098 5.80109 9 6 9C6.19891 9 6.38968 8.92098 6.53033 8.78033C6.67098 8.63968 6.75 8.44891 6.75 8.25V6.75H8.25C8.44891 6.75 8.63968 6.67098 8.78033 6.53033C8.92098 6.38968 9 6.19891 9 6C9 5.80109 8.92098 5.61032 8.78033 5.46967C8.63968 5.32902 8.44891 5.25 8.25 5.25H6.75V3.75C6.75 3.55109 6.67098 3.36032 6.53033 3.21967C6.38968 3.07902 6.19891 3 6 3C5.80109 3 5.61032 3.07902 5.46967 3.21967C5.32902 3.36032 5.25 3.55109 5.25 3.75V5.25H3.75C3.55109 5.25 3.36032 5.32902 3.21967 5.46967C3.07902 5.61032 3 5.80109 3 6C3 6.19891 3.07902 6.38968 3.21967 6.53033C3.36032 6.67098 3.55109 6.75 3.75 6.75Z" fill="#0C0C0D" fill-opacity="0.8"/>
</svg>
