<?xml version="1.0" encoding="UTF-8"?>
<!-- This Source Code Form is subject to the terms of the Mozilla Public
   - License, v. 2.0. If a copy of the MPL was not distributed with this
   - file, You can obtain one at http://mozilla.org/MPL/2.0/. -->
<svg width="12px" height="12px" viewBox="0 0 12 12" fill="none" xmlns="http://www.w3.org/2000/svg" xmlns:xlink="http://www.w3.org/1999/xlink">
 <path d="m1 2v8.0124c0 0.50319 0.50439 0.98758 0.98758 0.98758h7.9752c0.52853 0 1.0373-0.47685 1.0373-0.98758v-8c0-0.53457-0.48433-1.0124-0.98758-1.0124h-8.0248c-0.54378 0-0.98758 0.48961-0.98758 1zm9 8h-8v-8h8z" fill="#ededf0" fill-opacity=".8"/>
 <path d="m4 7h1v1c0 1 0.5 1 1 1s1 0 1-1v-1h1c1 0 1-0.5 1-1s0-1-1-1h-1v-1c0-1-0.5-1-1-1s-1 0-1 1v1h-1c-1 0-1 0.5-1 1s0 1 1 1z" fill="#ededf0" fill-opacity=".8"/>
</svg>
