<!-- This Source Code Form is subject to the terms of the Mozilla Public
   - License, v. 2.0. If a copy of the MPL was not distributed with this
   - file, You can obtain one at http://mozilla.org/MPL/2.0/. -->
<svg
   xmlns="http://www.w3.org/2000/svg"
   viewBox="0 0 12 12"
   height="12"
   width="12">
  <path
     d="M 3.8590613,1.0001427 H 3.144796 A 2.142796,2.142796 0 0 0 1.002,3.1429387 V 8.857061 a 2.142796,2.142796 0 0 0 2.142796,2.142796 H 8.858919 A 2.142796,2.142796 0 0 0 11.001715,8.857061 V 8.142796 a 0.7142655,0.7142655 0 0 0 -1.428531,0 V 8.857061 A 0.71426533,0.71426533 0 0 1 8.858919,9.571327 H 3.144796 A 0.71426533,0.71426533 0 0 1 2.4305307,8.857061 V 3.1429387 A 0.71426533,0.71426533 0 0 1 3.144796,2.4286734 h 0.7142653 a 0.71426535,0.71426535 0 1 0 0,-1.4285307 z"
     fill="rgba(237, 237, 240, .8)" />
  <path
     d="M 10.955287,1.4415587 A 0.71426533,0.71426533 0 0 0 10.29602,1.0001427 H 6.7246938 a 0.71426535,0.71426535 0 1 0 0,1.4285307 H 8.571784 L 6.2197082,4.7807491 A 0.71441004,0.71441004 0 1 0 7.2303936,5.7907203 L 9.582469,3.4386445 v 1.8470902 a 0.7142655,0.7142655 0 1 0 1.428531,0 V 1.714408 A 0.71426533,0.71426533 0 0 0 10.956,1.4415587 Z"
     fill="rgba(237, 237, 240, .8)" />
</svg>
