<!-- This Source Code Form is subject to the terms of the Mozilla Public
   - License, v. 2.0. If a copy of the MPL was not distributed with this
   - file, You can obtain one at http://mozilla.org/MPL/2.0/. -->
<svg width="16" height="16" viewBox="0 0 16 16" xmlns="http://www.w3.org/2000/svg" fill="#ededf0">
  <path fill-opacity=".3" d="M12 3h2v10h-2V3zM5 9.9V6.1L8 8 5 9.9z"></path>
  <path d="M14 2H2c-.6 0-1 .4-1 1v10c0 .6.4 1 1 1h12c.6 0 1-.4 1-1V3c0-.6-.4-1-1-1zM2 13V3h9v10H2zm12 0h-2V3h2v10zM8.5 7.2l-3-1.9C4.6 4.7 4 5 4 6.1v3.8c0 1.1.6 1.4 1.5.8l3-1.9c1-.5 1-1 0-1.6zM5 9.9V6.1L8 8 5 9.9z"></path>
</svg>
