<?xml version="1.0" encoding="UTF-8"?>
<!-- This Source Code Form is subject to the terms of the Mozilla Public
   - License, v. 2.0. If a copy of the MPL was not distributed with this
   - file, You can obtain one at http://mozilla.org/MPL/2.0/. -->
<svg width="12px" height="12px" viewBox="0 0 12 12" version="1.1" xmlns="http://www.w3.org/2000/svg" xmlns:xlink="http://www.w3.org/1999/xlink">
  <g transform="translate(1.000000, 0.000000)" fill="rgba(237, 237, 240, .8)" fill-rule="nonzero">
    <path d="M8.55146332,3.2205 L5.55146332,0.2205 C5.48126552,0.150583611 5.3979106,0.0952685711 5.30621332,0.05775 C5.24656653,0.037424408 5.1845621,0.0248218816 5.12171332,0.02025 C5.08875039,0.0110647866 5.05516123,0.00429682043 5.02121332,0 C4.98726542,0.00429682043 4.95367625,0.0110647866 4.92071332,0.02025 C4.85786455,0.0248218816 4.79586012,0.037424408 4.73621332,0.05775 C4.64360119,0.0964284695 4.55969418,0.153301612 4.48946332,0.225 L1.48946332,3.225 C1.22507669,3.52241284 1.23899562,3.97453744 1.5211763,4.25512388 C1.80335699,4.53571032 2.25555318,4.54706743 2.55146332,4.281 L4.27121332,2.56125 L4.27121332,8.25 C4.27121332,8.66421356 4.60699976,9 5.02121332,9 C5.43542689,9 5.77121332,8.66421356 5.77121332,8.25 L5.77121332,2.56125 L7.49096332,4.281 C7.78524749,4.56522916 8.25302691,4.56116428 8.54232726,4.27186393 C8.8316276,3.98256358 8.83569248,3.51478417 8.55146332,3.2205 Z"></path>
    <path d="M9.25,6.75 C8.83578644,6.75 8.5,7.08578644 8.5,7.5 L8.5,9.75 C8.5,10.1642136 8.16421356,10.5 7.75,10.5 L2.25,10.5 C1.83578644,10.5 1.5,10.1642136 1.5,9.75 L1.5,7.5 C1.5,7.08578644 1.16421356,6.75 0.75,6.75 C0.335786438,6.75 0,7.08578644 0,7.5 L0,9.75 C0,10.9926407 1.00735931,12 2.25,12 L7.75,12 C8.99264069,12 10,10.9926407 10,9.75 L10,7.5 C10,7.08578644 9.66421356,6.75 9.25,6.75 Z"></path>
  </g>
</svg>
