<?xml version="1.0" encoding="UTF-8"?>
<!-- This Source Code Form is subject to the terms of the Mozilla Public
   - License, v. 2.0. If a copy of the MPL was not distributed with this
   - file, You can obtain one at http://mozilla.org/MPL/2.0/. -->
<svg width="12px" height="12px" viewBox="0 0 12 12" version="1.1" xmlns="http://www.w3.org/2000/svg" xmlns:xlink="http://www.w3.org/1999/xlink">
  <g transform="translate(0.000000, 2.000000)" fill="rgba(237, 237, 240, .8)" fill-rule="nonzero">
    <path d="M11.1999997,7 C10.7581719,7 10.3999997,6.66434202 10.3999997,6.25028692 C10.4012388,4.47423183 9.96105957,2.41644287 7.60870361,1.75811768 C5.25634766,1.09979248 3.52069092,2.5 2.78090443,4.50602423 L4.81441042,4.50602423 C5.25623821,4.50602423 5.6144104,4.8416822 5.6144104,5.2557373 C5.6144104,5.6697924 5.25623821,6 4.81441042,6 L0.811210539,6 C0.369382752,6 0,5.6697924 0,5.2557373 L0,1.50717191 C0,1.09311681 0.369382752,0.757458836 0.811210539,0.757458836 C1.25303833,0.757458836 1.61121052,1.09311681 1.61121052,1.50717191 L1.61121052,3.3004856 C2.53070068,1.09130859 5.28404654,-0.566101074 8.1293335,0.304748535 C10.9746205,1.17559814 11.9989328,3.40267358 12,6.25028692 C12,6.66434202 11.6418275,7 11.1999997,7 Z"></path>
  </g>
</svg>
