<!-- This Source Code Form is subject to the terms of the Mozilla Public
   - License, v. 2.0. If a copy of the MPL was not distributed with this
   - file, You can obtain one at http://mozilla.org/MPL/2.0/. -->
<svg width="16px" height="16px" viewBox="0 0 16 16" version="1.1" xmlns="http://www.w3.org/2000/svg" xmlns:xlink="http://www.w3.org/1999/xlink">
  <g stroke="none" stroke-width="1" fill="none" fill-rule="evenodd">
    <g fill="#FFFFFF">
      <path d="M15.707,4.293 L11.707,0.293 C11.3146211,-0.0859722095 10.6909152,-0.0805523739 10.3051814,0.305181425 C9.91944763,0.690915223 9.91402779,1.31462111 10.293,1.707 L12.585,4 L11,4 C7.13583434,4.00440864 4.00440864,7.13583434 4,11 C4.00000001,11.5522847 4.44771526,12 5,12 C5.55228474,12 5.99999999,11.5522847 6,11 C6.00330612,8.23994685 8.23994685,6.00330612 11,6 L12.585,6 L10.292,8.293 C10.0320434,8.54407447 9.9277874,8.91587789 10.0193028,9.26550732 C10.1108183,9.61513676 10.3838632,9.88818172 10.7334927,9.97969716 C11.0831221,10.0712126 11.4549255,9.96695658 11.706,9.707 L15.706,5.707 C16.0966582,5.31677629 16.0971059,4.68377588 15.707,4.293 Z"></path>
      <path d="M13,11 C12.4477153,11 12,11.4477153 12,12 L12,13 C12,13.5522847 11.5522847,14 11,14 L3,14 C2.44771525,14 2,13.5522847 2,13 L2,6 C2,5.44771525 2.44771525,5 3,5 L4,5 C4.55228475,5 5,4.55228475 5,4 C5,3.44771525 4.55228475,3 4,3 L3,3 C1.34314575,3 2.02906125e-16,4.34314575 0,6 L0,13 C2.02906125e-16,14.6568542 1.34314575,16 3,16 L11,16 C12.6568542,16 14,14.6568542 14,13 L14,12 C14,11.4477153 13.5522847,11 13,11 Z"></path>
    </g>
  </g>
</svg>
